# xmcd CD database file
#
# Track frame offsets:
#	150
#	19337
#	40717
#
# Disc length: 782 seconds
#
# Revision: 10
# Processed by: cddbd v1.5.2PL0 Copyright (c) Steve Scherf et al.
# Submitted via: CDex 1.70beta2
#
DISCID=1b030c03
DTITLE=GReeeeN - 扉
DYEAR=2008
DGENRE=J-Pop
TTITLE0=扉
TTITLE1=君想い
TTITLE2=少年が故の情熱
EXTD=YEAR: 2008
EXTT0=
EXTT1=
EXTT2=
PLAYORDER=
